<!-- icon666.com - MILLIONS vector ICONS FREE --><svg version="1.1" id="Layer_1" xmlns="http://www.w3.org/2000/svg" xmlns:xlink="http://www.w3.org/1999/xlink" x="0px" y="0px" viewBox="0 0 512 512" style="enable-background:new 0 0 512 512;" xml:space="preserve"><g><g><g><path d="M361.313,332.25c-42.61-25.549-92.445-38.503-148.124-38.503c-30.529,0-61.317,3.631-94.113,11.101 c-13.233,2.611-21.445,12.889-21.445,26.867c0,14.381,11.306,25.646,25.738,25.646c3.409,0,7.237-0.942,10.939-1.855 c1.145-0.281,2.279-0.562,3.247-0.773c26.502-5.512,51.893-8.306,75.468-8.306c45.783,0,87.935,10.859,121.864,31.383 c4.429,2.702,8.962,5.126,15.704,5.126c14.048,0,25.478-11.474,25.477-25.579C376.067,342.808,368.622,336.493,361.313,332.25z M350.591,362.538c-1.139,0-1.873-0.186-5.115-2.162c-37.147-22.471-82.948-34.348-132.454-34.348 c-24.969,0-51.757,2.938-79.71,8.754c-1.231,0.267-2.551,0.591-3.884,0.919c-1.881,0.463-5.027,1.238-6.059,1.263 c-3.918,0-5.339-3.138-5.339-5.247c0-4.913,1.939-6.271,5.066-6.868c0.119-0.022,0.238-0.048,0.355-0.074 c31.351-7.151,60.706-10.627,89.74-10.627c51.957,0,98.285,11.989,137.693,35.635c0.046,0.029,0.093,0.056,0.139,0.083 c3.946,2.284,4.648,3.045,4.648,7.494C355.67,360.601,353.087,362.538,350.591,362.538z" fill="#000000" style="fill: rgb(50, 230, 0);"></path><path d="M390.485,260.229c-50.381-30.124-114.549-46.716-180.686-46.716c-40.925,0-69.421,5.523-99.684,13.834 c-14.432,4.073-22.709,15.129-22.709,30.337c0,16.251,13.187,29.472,29.395,29.472c4.848,0,8.394-1.146,11.522-2.157 c0.988-0.32,2.01-0.65,3.113-0.96c24.811-6.572,50.904-9.906,77.554-9.906c55.095,0,110.085,13.868,150.924,38.079l0.578,0.34 c3.827,2.25,9.069,5.33,16.893,5.33c16.186,0,29.355-13.2,29.356-29.425C406.741,275.782,401.424,266.549,390.485,260.229z M377.385,297.481c-2.187,0-3.511-0.726-6.557-2.517l-0.565-0.331c-44.488-26.374-101.761-40.9-161.273-40.9 c-28.438,0-56.313,3.569-82.85,10.608c-0.044,0.012-0.088,0.023-0.132,0.036c-1.52,0.424-2.816,0.844-3.959,1.213 c-2.571,0.831-3.678,1.169-5.249,1.169c-4.961,0-8.997-4.07-8.997-9.073c0-6.11,2.201-9.111,7.781-10.686 c28.603-7.856,55.57-13.088,94.213-13.088c62.534,0,123.008,15.577,170.283,43.864c0.05,0.03,0.102,0.06,0.153,0.09 c4.739,2.724,6.109,5.1,6.109,10.59C386.343,293.517,382.408,297.481,377.385,297.481z" fill="#000000" style="fill: rgb(50, 230, 0);"></path><path d="M423.511,177.85c-52.825-31.005-128.882-48.786-208.684-48.786c-44.307,0-84.537,5.231-119.587,15.554 c-15.1,4.471-24.48,17.209-24.48,33.242c0,18.897,14.65,33.7,33.351,33.7c4.794,0,9.031-1.245,12.436-2.246 c0.963-0.281,1.872-0.549,2.602-0.727c0.084-0.02,0.167-0.042,0.251-0.064c28.01-7.596,60.147-11.449,95.518-11.449 c66.904,0,133.984,15.292,175.062,39.906c0.115,0.069,0.232,0.136,0.349,0.2c5.966,3.262,10.525,5.029,17.529,5.029 c18.7,0,33.372-14.578,33.4-33.206C441.258,195.059,435.287,184.576,423.511,177.85z M407.858,221.812 c-2.457,0-3.63-0.29-7.573-2.436c-44.738-26.74-114.012-42.7-185.366-42.7c-37.126,0-71.018,4.081-100.742,12.129 c-1.143,0.283-2.279,0.617-3.378,0.939c-2.372,0.698-4.826,1.419-6.686,1.419c-7.385,0-12.953-5.719-12.953-13.302 c0-8.894,5.37-12.35,9.86-13.679c33.163-9.767,71.454-14.718,113.809-14.718c76.305,0,148.624,16.771,198.411,46.01 c0.04,0.023,0.08,0.047,0.12,0.069c4.631,2.635,7.502,5.807,7.502,13.447C420.849,217.016,414.24,221.812,407.858,221.812z" fill="#000000" style="fill: rgb(50, 230, 0);"></path><path d="M437.007,74.983C388.653,26.639,324.367,0.015,255.992,0.015c-68.381,0-132.665,26.624-181.013,74.968 C26.628,123.33,0,187.616,0,256c0,68.375,26.628,132.658,74.977,181.007c48.351,48.35,112.637,74.977,181.014,74.977 c68.373,0,132.659-26.628,181.016-74.976C485.367,388.656,512,324.372,512,256C512,187.618,485.367,123.332,437.007,74.983z M255.992,491.586C126.086,491.586,20.398,385.903,20.398,256S126.086,20.414,255.992,20.414 c129.915,0,235.61,105.683,235.61,235.586S385.907,491.586,255.992,491.586z" fill="#000000" style="fill: rgb(50, 230, 0);"></path></g></g></g><g><g><path d="M459.684,319.86c-5.287-1.94-11.147,0.771-13.089,6.059c-1.316,3.583-2.752,7.175-4.27,10.68 c-2.24,5.168,0.135,11.173,5.304,13.413c1.322,0.572,2.697,0.843,4.05,0.843c3.942,0,7.696-2.299,9.363-6.147 c1.672-3.858,3.254-7.815,4.702-11.76C467.684,327.662,464.972,321.801,459.684,319.86z" fill="#000000" style="fill: rgb(50, 230, 0);"></path></g></g><g><g><path d="M438.178,367.184c-4.659-3.165-11.002-1.953-14.168,2.705c-37.889,55.766-100.699,89.06-168.017,89.06 c-5.633,0-10.199,4.566-10.199,10.199c0,5.633,4.566,10.199,10.199,10.199c74.081,0,143.199-36.634,184.889-97.996 C444.048,376.692,442.837,370.349,438.178,367.184z" fill="#000000" style="fill: rgb(50, 230, 0);"></path></g></g></svg>